<?xml version="1.0" encoding="utf-8"?>
<!-- Generator: Adobe Illustrator 24.0.2, SVG Export Plug-In . SVG Version: 6.00 Build 0)  -->
<svg version="1.1" id="Capa_1" xmlns="http://www.w3.org/2000/svg" xmlns:xlink="http://www.w3.org/1999/xlink" x="0px" y="0px"
	 viewBox="0 0 252.5 85" style="enable-background:new 0 0 252.5 85;" xml:space="preserve">
<style type="text/css">
	.st0{display:none;fill:#130A17;}
	.st1{fill:#FFFFFF;}
</style>
<rect class="st0" width="252.5" height="85"/>
<g>
	<path class="st1" d="M40.3,49.7v26.5H25.7V49.6l-22.9-39h15.1l15.2,26.3l15.2-26.3h15.1L40.3,49.7z"/>
	<path class="st1" d="M136.3,25.6l-16.5,50.6h-11L97.2,50L86,76.2H75L58.2,25.6h13.9l10,30.2L95.3,26h3.9l13.6,29.9l9.9-30.3
		C122.7,25.6,136.3,25.6,136.3,25.6z"/>
	<path class="st1" d="M187.1,50.7c0,1.3-0.1,2.7-0.3,4h-38.3c1.2,6.9,5.7,10.7,12.4,10.7c4.8,0,8.7-2.2,10.7-5.9H186
		c-3.7,11-13.4,18.1-25.1,18.1c-14.9,0-26.3-11.6-26.3-26.7c0-15.2,11.2-26.7,26.3-26.7C176.4,24.2,187.1,36.1,187.1,50.7
		L187.1,50.7z M148.9,45.4h24.5c-1.9-6.2-6.4-9.5-12.5-9.5C154.8,35.8,150.5,39.4,148.9,45.4z"/>
	<path class="st1" d="M246.3,50.9c0,15.3-11.2,26.7-26.6,26.7c-6.1,0-11.6-2.1-15.8-5.7l-1.6,4.2h-10.1V7.4h13.7v21
		c3.9-2.7,8.6-4.2,13.9-4.2C235.1,24.2,246.3,35.6,246.3,50.9z M218.6,64.7c7.9,0,13.8-5.9,13.8-13.8S226.6,37,218.6,37
		s-13.8,5.9-13.8,13.9C204.8,58.7,210.6,64.7,218.6,64.7L218.6,64.7z"/>
</g>
</svg>
