<?xml version="1.0" encoding="utf-8"?>
<!-- Generator: Adobe Illustrator 24.0.2, SVG Export Plug-In . SVG Version: 6.00 Build 0)  -->
<svg version="1.1" id="Capa_1" xmlns="http://www.w3.org/2000/svg" xmlns:xlink="http://www.w3.org/1999/xlink" x="0px" y="0px"
	 viewBox="0 0 616.8 118.6" style="enable-background:new 0 0 616.8 118.6;" xml:space="preserve">
<style type="text/css">
	.st0{display:none;fill:#FFFFFF;}
	.st1{fill:#2B275C;}
	.st2{fill:#EB593C;}
	.st3{fill:#8A89AD;}
	.st4{fill:#616194;}
	.st5{fill:#363371;}
	.st6{fill:#FFFFFF;}
	.st7{fill:#EDA7A2;}
	.st8{fill:#EE897E;}
	.st9{fill:#EE7460;}
</style>
<rect x="-1.5" y="33.2" class="st0" width="620" height="128"/>
<g>
	<g>
		<path class="st1" d="M161.9,0c4.2,0,8,0.4,11.5,1.3s6.2,1.7,8.1,2.5l-4.4,17.8c-2-0.9-4.2-1.6-6.5-2c-2.4-0.4-4.5-0.7-6.5-0.7
			c-2.7,0-5,0.4-6.8,1.1c-1.9,0.8-3.3,1.8-4.4,3.1c-1,1.3-1.8,2.8-2.3,4.7c-0.4,1.8-0.7,3.8-0.7,5.8v3.9h27.6v18.6h-27.6v60.3h-22.4
			V33.2c0-10.2,2.9-18.3,8.6-24.3C142.1,3,150.6,0,161.9,0z"/>
		<path class="st1" d="M208.7,35.3c6.6,0,12.1,0.8,16.5,2.3s7.9,3.7,10.6,6.5c2.6,2.8,4.5,6.2,5.6,10.2s1.7,8.5,1.7,13.3v46.5
			c-3.2,0.7-7.7,1.5-13.4,2.5c-5.7,0.9-12.6,1.4-20.7,1.4c-5.1,0-9.7-0.5-13.9-1.4s-7.7-2.4-10.7-4.4s-5.3-4.7-6.9-8
			c-1.6-3.3-2.4-7.4-2.4-12.2c0-4.6,0.9-8.5,2.8-11.7c1.8-3.2,4.3-5.7,7.4-7.6c3.1-1.9,6.6-3.3,10.6-4.1c4-0.8,8.1-1.3,12.4-1.3
			c2.9,0,5.5,0.1,7.7,0.4c2.3,0.3,4.1,0.6,5.5,1v-2.1c0-3.8-1.2-6.8-3.5-9.2c-2.3-2.3-6.3-3.4-12-3.4c-3.8,0-7.6,0.3-11.3,0.8
			c-3.7,0.6-6.9,1.3-9.6,2.3l-2.9-18c1.3-0.4,2.9-0.8,4.9-1.3c1.9-0.5,4.1-0.8,6.4-1.2c2.3-0.3,4.7-0.6,7.3-0.9
			C203.5,35.5,206.1,35.3,208.7,35.3z M210.5,100.7c2.2,0,4.3,0,6.3-0.2c2-0.1,3.6-0.2,4.8-0.5V83.2c-0.9-0.2-2.3-0.4-4-0.6
			c-1.8-0.2-3.5-0.3-5-0.3c-2.1,0-4.1,0.1-5.9,0.4c-1.9,0.3-3.5,0.7-4.9,1.4c-1.4,0.7-2.5,1.7-3.3,2.9c-0.8,1.2-1.2,2.7-1.2,4.5
			c0,3.5,1.2,5.9,3.5,7.3C203.1,100.1,206.4,100.7,210.5,100.7z"/>
		<path class="st1" d="M278.4,100.3c4.1,0,7-0.4,8.7-1.2c1.7-0.8,2.5-2.3,2.5-4.6c0-1.8-1.1-3.4-3.3-4.7c-2.2-1.3-5.6-2.9-10.1-4.6
			c-3.5-1.3-6.7-2.6-9.5-4c-2.9-1.4-5.3-3.1-7.3-5c-2-2-3.6-4.3-4.6-7c-1.1-2.7-1.6-5.9-1.6-9.8c0-7.4,2.7-13.2,8.3-17.5
			c5.5-4.3,13-6.5,22.6-6.5c4.8,0,9.4,0.4,13.8,1.3c4.4,0.9,7.9,1.8,10.5,2.8l-3.9,17.3c-2.6-0.9-5.4-1.7-8.5-2.4s-6.5-1-10.3-1
			c-7,0-10.5,2-10.5,5.9c0,0.9,0.1,1.7,0.5,2.4c0.3,0.7,0.9,1.4,1.8,2c0.9,0.7,2.1,1.4,3.7,2.1c1.5,0.8,3.5,1.6,5.9,2.5
			c4.9,1.8,8.9,3.6,12.1,5.4s5.7,3.7,7.6,5.7c1.8,2,3.1,4.3,3.9,6.8s1.1,5.4,1.1,8.7c0,7.8-2.9,13.7-8.8,17.7s-14.1,6-24.8,6
			c-7,0-12.8-0.6-17.5-1.8c-4.6-1.2-7.9-2.2-9.7-3l3.8-18.1c3.8,1.5,7.7,2.7,11.7,3.5C270.6,99.9,274.5,100.3,278.4,100.3z"/>
		<path class="st1" d="M320.3,17.8l22.4-3.6v23.3h26.8v18.6h-26.8v27.8c0,4.7,0.8,8.5,2.5,11.3s5,4.2,10,4.2c2.4,0,4.9-0.2,7.4-0.7
			s4.9-1.1,7-1.9l3.2,17.4c-2.7,1.1-5.7,2.1-9,2.9s-7.4,1.2-12.2,1.2c-6.1,0-11.2-0.8-15.2-2.5s-7.2-3.9-9.6-6.9
			c-2.4-2.9-4.1-6.5-5-10.7c-1-4.2-1.4-8.8-1.4-14V17.8H320.3z"/>
		<path class="st1" d="M373.4,77.5c0-7,1.1-13.1,3.2-18.4s5-9.6,8.5-13.1s7.5-6.2,12.1-8c4.5-1.8,9.2-2.7,14-2.7
			c11.2,0,20,3.4,26.5,10.3s9.8,16.9,9.8,30.2c0,1.3-0.1,2.7-0.1,4.3c-0.1,1.6-0.2,2.9-0.3,4.1h-50.7c0.5,4.6,2.6,8.3,6.5,11
			c3.8,2.7,8.9,4,15.3,4c4.1,0,8.1-0.4,12.1-1.1c3.9-0.8,7.2-1.7,9.7-2.8l3,18.2c-1.2,0.6-2.8,1.2-4.8,1.8c-2,0.6-4.2,1.1-6.7,1.6
			s-5.1,0.8-7.9,1.1c-2.8,0.3-5.6,0.5-8.4,0.5c-7.1,0-13.3-1.1-18.5-3.2s-9.6-5-13-8.6c-3.5-3.6-6-8-7.6-13
			C374.2,88.7,373.4,83.3,373.4,77.5z M425.9,69c-0.1-1.9-0.4-3.8-1-5.6c-0.6-1.8-1.4-3.4-2.5-4.8c-1.2-1.4-2.6-2.5-4.4-3.5
			c-1.8-0.9-3.9-1.3-6.5-1.3c-2.5,0-4.7,0.4-6.5,1.3c-1.8,0.9-3.3,2-4.5,3.4c-1.2,1.4-2.1,3-2.8,4.9c-0.7,1.9-1.1,3.7-1.4,5.6H425.9
			z"/>
		<path class="st1" d="M504.8,57.2c-2-0.5-4.3-1-7-1.6c-2.7-0.5-5.6-0.8-8.7-0.8c-1.4,0-3.1,0.1-5,0.4c-2,0.3-3.4,0.5-4.4,0.8v60.3
			h-22.3V41.6c4-1.4,8.7-2.7,14.2-4c5.4-1.2,11.5-1.9,18.2-1.9c1.2,0,2.6,0.1,4.3,0.2c1.7,0.2,3.4,0.4,5.1,0.6
			c1.7,0.3,3.4,0.6,5.1,0.9c1.7,0.4,3.1,0.8,4.3,1.3L504.8,57.2z"/>
		<path class="st2" d="M537.5,14.6c0,4.1-1.3,7.3-4,9.7s-5.8,3.5-9.4,3.5c-3.6,0-6.7-1.2-9.4-3.5s-4-5.6-4-9.7s1.3-7.3,4-9.7
			c2.6-2.3,5.8-3.5,9.4-3.5c3.6,0,6.7,1.2,9.4,3.5C536.1,7.3,537.5,10.6,537.5,14.6z M535.4,116.3h-22.3V37.5h22.3V116.3z"/>
		<path class="st2" d="M548.8,40.1c3.8-1.1,8.7-2.1,14.7-3.1c6-0.9,12.3-1.4,18.9-1.4c6.7,0,12.3,0.9,16.7,2.6
			c4.4,1.8,8,4.2,10.6,7.4s4.4,7,5.5,11.4s1.6,9.3,1.6,14.7v44.5h-22.3V74.5c0-7.2-1-12.3-2.8-15.3c-1.9-3-5.5-4.5-10.7-4.5
			c-1.6,0-3.3,0.1-5.1,0.2c-1.8,0.2-3.4,0.3-4.8,0.5v60.9h-22.3L548.8,40.1L548.8,40.1z"/>
	</g>
	<path class="st3" d="M16.8,115.3L16.8,115.3C7.5,115.3,0,107.8,0,98.5V19.9C0,10.6,7.5,3.1,16.8,3.1l0,0c9.3,0,16.8,7.5,16.8,16.8
		v78.6C33.6,107.8,26.1,115.3,16.8,115.3z"/>
	<path class="st4" d="M42,115.3L42,115.3c-9.3,0-16.8-7.5-16.8-16.8V19.9c0-9.3,7.5-16.8,16.8-16.8l0,0c9.3,0,16.8,7.5,16.8,16.8
		v78.6C58.8,107.8,51.3,115.3,42,115.3z"/>
	<path class="st5" d="M67.5,115.3L67.5,115.3c-9.3,0-16.8-7.5-16.8-16.8V19.9c0-9.3,7.5-16.8,16.8-16.8l0,0
		c9.3,0,16.8,7.5,16.8,16.8v78.6C84.3,107.8,76.8,115.3,67.5,115.3z"/>
	<path class="st1" d="M110.2,98.5c0,9.3-7.5,16.8-16.8,16.8l0,0c-9.3,0-16.8-7.5-16.8-16.8V19.9c0-9.3,7.5-16.8,16.8-16.8l0,0
		c9.3,0,16.8,7.5,16.8,16.8"/>
</g>
<rect x="-1.5" y="342.3" class="st1" width="620" height="128"/>
<g>
	<g>
		<path class="st6" d="M161.9,347c4.2,0,8,0.4,11.5,1.3s6.2,1.7,8.1,2.5l-4.4,17.8c-2-0.9-4.2-1.6-6.5-2c-2.4-0.4-4.5-0.7-6.5-0.7
			c-2.7,0-5,0.4-6.8,1.1c-1.9,0.8-3.3,1.8-4.4,3.1c-1,1.3-1.8,2.8-2.3,4.7c-0.4,1.8-0.7,3.8-0.7,5.8v3.9h27.6v18.6h-27.6v60.3h-22.4
			v-83.1c0-10.2,2.9-18.3,8.6-24.3C142.1,350,150.6,347,161.9,347z"/>
		<path class="st6" d="M208.7,382.4c6.6,0,12.1,0.8,16.5,2.3s7.9,3.7,10.6,6.5c2.6,2.8,4.5,6.2,5.6,10.2s1.7,8.5,1.7,13.3v46.5
			c-3.2,0.7-7.7,1.5-13.4,2.5c-5.7,0.9-12.6,1.4-20.7,1.4c-5.1,0-9.7-0.5-13.9-1.4s-7.7-2.4-10.7-4.4s-5.3-4.7-6.9-8
			c-1.6-3.3-2.4-7.4-2.4-12.2c0-4.6,0.9-8.5,2.8-11.7c1.8-3.2,4.3-5.7,7.4-7.6c3.1-1.9,6.6-3.3,10.6-4.1c4-0.8,8.1-1.3,12.4-1.3
			c2.9,0,5.5,0.1,7.7,0.4c2.3,0.3,4.1,0.6,5.5,1v-2.1c0-3.8-1.2-6.8-3.5-9.2c-2.3-2.3-6.3-3.4-12-3.4c-3.8,0-7.6,0.3-11.3,0.8
			c-3.7,0.6-6.9,1.3-9.6,2.3l-2.9-18c1.3-0.4,2.9-0.8,4.9-1.3c1.9-0.5,4.1-0.8,6.4-1.2c2.3-0.3,4.7-0.6,7.3-0.9
			C203.5,382.6,206.1,382.4,208.7,382.4z M210.5,447.8c2.2,0,4.3,0,6.3-0.2c2-0.1,3.6-0.2,4.8-0.5v-16.9c-0.9-0.2-2.3-0.4-4-0.6
			c-1.8-0.2-3.5-0.3-5-0.3c-2.1,0-4.1,0.1-5.9,0.4c-1.9,0.3-3.5,0.7-4.9,1.4c-1.4,0.7-2.5,1.7-3.3,2.9c-0.8,1.2-1.2,2.7-1.2,4.5
			c0,3.5,1.2,5.9,3.5,7.3C203.1,447.2,206.4,447.8,210.5,447.8z"/>
		<path class="st6" d="M278.4,447.4c4.1,0,7-0.4,8.7-1.2c1.7-0.8,2.5-2.3,2.5-4.6c0-1.8-1.1-3.4-3.3-4.7c-2.2-1.3-5.6-2.9-10.1-4.6
			c-3.5-1.3-6.7-2.6-9.5-4c-2.9-1.4-5.3-3.1-7.3-5c-2-2-3.6-4.3-4.6-7c-1.1-2.7-1.6-5.9-1.6-9.8c0-7.4,2.7-13.2,8.3-17.5
			c5.5-4.3,13-6.5,22.6-6.5c4.8,0,9.4,0.4,13.8,1.3s7.9,1.8,10.5,2.8l-3.9,17.4c-2.6-0.9-5.4-1.7-8.5-2.4c-3.1-0.7-6.5-1-10.3-1
			c-7,0-10.5,2-10.5,5.9c0,0.9,0.1,1.7,0.5,2.4c0.3,0.7,0.9,1.4,1.8,2c0.9,0.7,2.1,1.4,3.7,2.1c1.5,0.8,3.5,1.6,5.9,2.5
			c4.9,1.8,8.9,3.6,12.1,5.4s5.7,3.7,7.6,5.7c1.8,2,3.1,4.3,3.9,6.8s1.1,5.4,1.1,8.7c0,7.8-2.9,13.7-8.8,17.7s-14.1,6-24.8,6
			c-7,0-12.8-0.6-17.5-1.8c-4.6-1.2-7.9-2.2-9.7-3l3.8-18.1c3.8,1.5,7.7,2.7,11.7,3.5C270.6,447,274.5,447.4,278.4,447.4z"/>
		<path class="st6" d="M320.3,364.9l22.4-3.6v23.3h26.8v18.6h-26.8V431c0,4.7,0.8,8.5,2.5,11.3s5,4.2,10,4.2c2.4,0,4.9-0.2,7.4-0.7
			s4.9-1.1,7-1.9l3.2,17.4c-2.7,1.1-5.7,2.1-9,2.9s-7.4,1.2-12.2,1.2c-6.1,0-11.2-0.8-15.2-2.5s-7.2-3.9-9.6-6.9
			c-2.4-2.9-4.1-6.5-5-10.7c-1-4.2-1.4-8.8-1.4-14v-66.4H320.3z"/>
		<path class="st6" d="M373.4,424.6c0-7,1.1-13.1,3.2-18.4s5-9.6,8.5-13.1s7.5-6.2,12.1-8c4.5-1.8,9.2-2.7,14-2.7
			c11.2,0,20,3.4,26.5,10.3s9.8,16.9,9.8,30.2c0,1.3-0.1,2.7-0.1,4.3c-0.1,1.6-0.2,2.9-0.3,4.1h-50.7c0.5,4.6,2.6,8.3,6.5,11
			c3.8,2.7,8.9,4,15.3,4c4.1,0,8.1-0.4,12.1-1.1c3.9-0.8,7.2-1.7,9.7-2.8l3,18.2c-1.2,0.6-2.8,1.2-4.8,1.8c-2,0.6-4.2,1.1-6.7,1.6
			s-5.1,0.8-7.9,1.1c-2.8,0.3-5.6,0.5-8.4,0.5c-7.1,0-13.3-1.1-18.5-3.2s-9.6-5-13-8.6c-3.5-3.6-6-8-7.6-13
			C374.2,435.8,373.4,430.4,373.4,424.6z M425.9,416c-0.1-1.9-0.4-3.8-1-5.6c-0.6-1.8-1.4-3.4-2.5-4.8c-1.2-1.4-2.6-2.5-4.4-3.5
			c-1.8-0.9-3.9-1.3-6.5-1.3c-2.5,0-4.7,0.4-6.5,1.3s-3.3,2-4.5,3.4s-2.1,3-2.8,4.9c-0.7,1.9-1.1,3.7-1.4,5.6H425.9z"/>
		<path class="st6" d="M504.8,404.3c-2-0.5-4.3-1-7-1.6c-2.7-0.5-5.6-0.8-8.7-0.8c-1.4,0-3.1,0.1-5,0.4c-2,0.3-3.4,0.5-4.4,0.8v60.3
			h-22.3v-74.7c4-1.4,8.7-2.7,14.2-4c5.4-1.2,11.5-1.9,18.2-1.9c1.2,0,2.6,0.1,4.3,0.2c1.7,0.2,3.4,0.4,5.1,0.6
			c1.7,0.3,3.4,0.6,5.1,0.9c1.7,0.4,3.1,0.8,4.3,1.3L504.8,404.3z"/>
		<path class="st2" d="M537.5,361.7c0,4.1-1.3,7.3-4,9.7c-2.7,2.4-5.8,3.5-9.4,3.5c-3.6,0-6.7-1.2-9.4-3.5s-4-5.6-4-9.7
			s1.3-7.3,4-9.7c2.6-2.3,5.8-3.5,9.4-3.5c3.6,0,6.7,1.2,9.4,3.5C536.1,354.4,537.5,357.6,537.5,361.7z M535.4,463.4h-22.3v-78.9
			h22.3V463.4z"/>
		<path class="st2" d="M548.8,387.2c3.8-1.1,8.7-2.1,14.7-3.1c6-0.9,12.3-1.4,18.9-1.4c6.7,0,12.3,0.9,16.7,2.6
			c4.4,1.8,8,4.2,10.6,7.4c2.6,3.2,4.4,7,5.5,11.4s1.6,9.3,1.6,14.7v44.5h-22.3v-41.8c0-7.2-1-12.3-2.8-15.3
			c-1.9-3-5.5-4.5-10.7-4.5c-1.6,0-3.3,0.1-5.1,0.2c-1.8,0.2-3.4,0.3-4.8,0.5v60.9h-22.3L548.8,387.2L548.8,387.2z"/>
	</g>
	<g>
		<path class="st7" d="M16.8,462.4L16.8,462.4c-9.3,0-16.8-7.5-16.8-16.8V367c0-9.3,7.5-16.8,16.8-16.8l0,0
			c9.3,0,16.8,7.5,16.8,16.8v78.6C33.6,454.9,26.1,462.4,16.8,462.4z"/>
		<path class="st8" d="M42,462.4L42,462.4c-9.3,0-16.8-7.5-16.8-16.8V367c0-9.3,7.5-16.8,16.8-16.8l0,0c9.3,0,16.8,7.5,16.8,16.8
			v78.6C58.8,454.9,51.3,462.4,42,462.4z"/>
		<path class="st9" d="M67.5,462.4L67.5,462.4c-9.3,0-16.8-7.5-16.8-16.8V367c0-9.3,7.5-16.8,16.8-16.8l0,0
			c9.3,0,16.8,7.5,16.8,16.8v78.6C84.3,454.9,76.8,462.4,67.5,462.4z"/>
		<path class="st2" d="M110.2,445.6c0,9.3-7.5,16.8-16.8,16.8l0,0c-9.3,0-16.8-7.5-16.8-16.8V367c0-9.3,7.5-16.8,16.8-16.8l0,0
			c9.3,0,16.8,7.5,16.8,16.8"/>
	</g>
</g>
</svg>
